<?xml version="1.0" encoding="UTF-8" standalone="no"?>
<!DOCTYPE svg PUBLIC "-//W3C//DTD SVG 1.1//EN"
 "http://www.w3.org/Graphics/SVG/1.1/DTD/svg11.dtd">
<!-- Generated by graphviz version 2.40.1 (20161225.0304)
 -->
<!-- Title: fluxo Pages: 1 -->
<svg width="870pt" height="562pt"
 viewBox="0.00 0.00 870.00 562.00" xmlns="http://www.w3.org/2000/svg" xmlns:xlink="http://www.w3.org/1999/xlink">
<g id="graph0" class="graph" transform="scale(1 1) rotate(0) translate(4 558)">
<title>fluxo</title>
<polygon fill="#ffffff" stroke="transparent" points="-4,4 -4,-558 866,-558 866,4 -4,4"/>
<!-- T1 -->
<g id="node1" class="node">
<title>T1</title>
<polygon fill="#56b4e9" stroke="transparent" points="167.5,-554 166.5,-554 166.5,-553 167.5,-553 167.5,-554"/>
<text text-anchor="middle" x="167" y="-557.7" font-family="Helvetica,sans-Serif" font-size="14.00" fill="#000000">Aprendizagem</text>
<text text-anchor="middle" x="167" y="-540.9" font-family="Helvetica,sans-Serif" font-size="14.00" fill="#000000">Supervisionada</text>
</g>
<!-- C1 -->
<g id="node4" class="node">
<title>C1</title>
<polygon fill="#009e73" stroke="#000000" points="158,-517 0,-517 0,-474 158,-474 158,-517"/>
<text text-anchor="middle" x="79" y="-491.3" font-family="Helvetica,sans-Serif" font-size="14.00" fill="#000000">Classificação</text>
</g>
<!-- T1&#45;&gt;C1 -->
<!-- C2 -->
<g id="node5" class="node">
<title>C2</title>
<polygon fill="#009e73" stroke="#000000" points="334,-517 176,-517 176,-474 334,-474 334,-517"/>
<text text-anchor="middle" x="255" y="-491.3" font-family="Helvetica,sans-Serif" font-size="14.00" fill="#000000">Regressão</text>
</g>
<!-- T1&#45;&gt;C2 -->
<!-- T2 -->
<g id="node2" class="node">
<title>T2</title>
<polygon fill="#56b4e9" stroke="transparent" points="519.5,-554 518.5,-554 518.5,-553 519.5,-553 519.5,-554"/>
<text text-anchor="middle" x="519" y="-557.7" font-family="Helvetica,sans-Serif" font-size="14.00" fill="#000000">Aprendizagem Não</text>
<text text-anchor="middle" x="519" y="-540.9" font-family="Helvetica,sans-Serif" font-size="14.00" fill="#000000">Supervisionada</text>
</g>
<!-- C3 -->
<g id="node6" class="node">
<title>C3</title>
<polygon fill="#009e73" stroke="#000000" points="510,-517 352,-517 352,-474 510,-474 510,-517"/>
<text text-anchor="middle" x="431" y="-491.3" font-family="Helvetica,sans-Serif" font-size="14.00" fill="#000000">Clusterização</text>
</g>
<!-- T2&#45;&gt;C3 -->
<!-- C4 -->
<g id="node7" class="node">
<title>C4</title>
<polygon fill="#009e73" stroke="#000000" points="686,-517 528,-517 528,-474 686,-474 686,-517"/>
<text text-anchor="middle" x="607" y="-491.3" font-family="Helvetica,sans-Serif" font-size="14.00" fill="#000000">Outros</text>
</g>
<!-- T2&#45;&gt;C4 -->
<!-- T3 -->
<g id="node3" class="node">
<title>T3</title>
<polygon fill="#56b4e9" stroke="transparent" points="783.5,-554 782.5,-554 782.5,-553 783.5,-553 783.5,-554"/>
<text text-anchor="middle" x="783" y="-557.7" font-family="Helvetica,sans-Serif" font-size="14.00" fill="#000000">Aprendizagem por</text>
<text text-anchor="middle" x="783" y="-540.9" font-family="Helvetica,sans-Serif" font-size="14.00" fill="#000000">Reforço</text>
</g>
<!-- C5 -->
<g id="node8" class="node">
<title>C5</title>
<polygon fill="#009e73" stroke="#000000" points="862,-517 704,-517 704,-474 862,-474 862,-517"/>
<text text-anchor="middle" x="783" y="-491.3" font-family="Helvetica,sans-Serif" font-size="14.00" fill="#000000">Métodos</text>
</g>
<!-- T3&#45;&gt;C5 -->
<!-- C1_1 -->
<g id="node9" class="node">
<title>C1_1</title>
<polygon fill="#cc79a7" stroke="#000000" points="158,-438 0,-438 0,-395 158,-395 158,-438"/>
<text text-anchor="middle" x="79" y="-412.3" font-family="Helvetica,sans-Serif" font-size="14.00" fill="#000000">Reg. Logística</text>
</g>
<!-- C1&#45;&gt;C1_1 -->
<!-- C2_1 -->
<g id="node15" class="node">
<title>C2_1</title>
<polygon fill="#cc79a7" stroke="#000000" points="334,-438 176,-438 176,-395 334,-395 334,-438"/>
<text text-anchor="middle" x="255" y="-412.3" font-family="Helvetica,sans-Serif" font-size="14.00" fill="#000000">Reg. Logística</text>
</g>
<!-- C2&#45;&gt;C2_1 -->
<!-- C3_1 -->
<g id="node20" class="node">
<title>C3_1</title>
<polygon fill="#cc79a7" stroke="#000000" points="510,-438 352,-438 352,-395 510,-395 510,-438"/>
<text text-anchor="middle" x="431" y="-412.3" font-family="Helvetica,sans-Serif" font-size="14.00" fill="#000000">K&#45;means</text>
</g>
<!-- C3&#45;&gt;C3_1 -->
<!-- C4_1 -->
<g id="node23" class="node">
<title>C4_1</title>
<polygon fill="#cc79a7" stroke="#000000" points="686,-438 528,-438 528,-395 686,-395 686,-438"/>
<text text-anchor="middle" x="607" y="-412.3" font-family="Helvetica,sans-Serif" font-size="14.00" fill="#000000">Correlação</text>
</g>
<!-- C4&#45;&gt;C4_1 -->
<!-- C5_1 -->
<g id="node26" class="node">
<title>C5_1</title>
<polygon fill="#cc79a7" stroke="#000000" points="862,-438 704,-438 704,-395 862,-395 862,-438"/>
<text text-anchor="middle" x="783" y="-412.3" font-family="Helvetica,sans-Serif" font-size="14.00" fill="#000000">Q&#45;Learning</text>
</g>
<!-- C5&#45;&gt;C5_1 -->
<!-- C1_2 -->
<g id="node10" class="node">
<title>C1_2</title>
<polygon fill="#cc79a7" stroke="#000000" points="158,-359 0,-359 0,-316 158,-316 158,-359"/>
<text text-anchor="middle" x="79" y="-333.3" font-family="Helvetica,sans-Serif" font-size="14.00" fill="#000000">SVM</text>
</g>
<!-- C1_1&#45;&gt;C1_2 -->
<!-- C1_3 -->
<g id="node11" class="node">
<title>C1_3</title>
<polygon fill="#cc79a7" stroke="#000000" points="158,-280 0,-280 0,-237 158,-237 158,-280"/>
<text text-anchor="middle" x="79" y="-254.3" font-family="Helvetica,sans-Serif" font-size="14.00" fill="#000000">Redes Neurais</text>
</g>
<!-- C1_2&#45;&gt;C1_3 -->
<!-- C1_4 -->
<g id="node12" class="node">
<title>C1_4</title>
<polygon fill="#cc79a7" stroke="#000000" points="158,-201 0,-201 0,-158 158,-158 158,-201"/>
<text text-anchor="middle" x="79" y="-175.3" font-family="Helvetica,sans-Serif" font-size="14.00" fill="#000000">Random Forest</text>
</g>
<!-- C1_3&#45;&gt;C1_4 -->
<!-- C1_5 -->
<g id="node13" class="node">
<title>C1_5</title>
<polygon fill="#cc79a7" stroke="#000000" points="158,-122 0,-122 0,-79 158,-79 158,-122"/>
<text text-anchor="middle" x="79" y="-104.7" font-family="Helvetica,sans-Serif" font-size="14.00" fill="#000000">Árvore de</text>
<text text-anchor="middle" x="79" y="-87.9" font-family="Helvetica,sans-Serif" font-size="14.00" fill="#000000">Decisão</text>
</g>
<!-- C1_4&#45;&gt;C1_5 -->
<!-- C1_6 -->
<g id="node14" class="node">
<title>C1_6</title>
<polygon fill="#cc79a7" stroke="#000000" points="158,-43 0,-43 0,0 158,0 158,-43"/>
<text text-anchor="middle" x="79" y="-17.3" font-family="Helvetica,sans-Serif" font-size="14.00" fill="#000000">Naive Bayes</text>
</g>
<!-- C1_5&#45;&gt;C1_6 -->
<!-- C2_2 -->
<g id="node16" class="node">
<title>C2_2</title>
<polygon fill="#cc79a7" stroke="#000000" points="334,-359 176,-359 176,-316 334,-316 334,-359"/>
<text text-anchor="middle" x="255" y="-333.3" font-family="Helvetica,sans-Serif" font-size="14.00" fill="#000000">SVM</text>
</g>
<!-- C2_1&#45;&gt;C2_2 -->
<!-- C2_3 -->
<g id="node17" class="node">
<title>C2_3</title>
<polygon fill="#cc79a7" stroke="#000000" points="334,-280 176,-280 176,-237 334,-237 334,-280"/>
<text text-anchor="middle" x="255" y="-254.3" font-family="Helvetica,sans-Serif" font-size="14.00" fill="#000000">Redes Neurais</text>
</g>
<!-- C2_2&#45;&gt;C2_3 -->
<!-- C2_4 -->
<g id="node18" class="node">
<title>C2_4</title>
<polygon fill="#cc79a7" stroke="#000000" points="334,-201 176,-201 176,-158 334,-158 334,-201"/>
<text text-anchor="middle" x="255" y="-175.3" font-family="Helvetica,sans-Serif" font-size="14.00" fill="#000000">Random Forest</text>
</g>
<!-- C2_3&#45;&gt;C2_4 -->
<!-- C2_5 -->
<g id="node19" class="node">
<title>C2_5</title>
<polygon fill="#cc79a7" stroke="#000000" points="334,-122 176,-122 176,-79 334,-79 334,-122"/>
<text text-anchor="middle" x="255" y="-104.7" font-family="Helvetica,sans-Serif" font-size="14.00" fill="#000000">Árvore de</text>
<text text-anchor="middle" x="255" y="-87.9" font-family="Helvetica,sans-Serif" font-size="14.00" fill="#000000">Decisão</text>
</g>
<!-- C2_4&#45;&gt;C2_5 -->
<!-- C3_2 -->
<g id="node21" class="node">
<title>C3_2</title>
<polygon fill="#cc79a7" stroke="#000000" points="510,-359 352,-359 352,-316 510,-316 510,-359"/>
<text text-anchor="middle" x="431" y="-333.3" font-family="Helvetica,sans-Serif" font-size="14.00" fill="#000000">Cluster. Hierárquica</text>
</g>
<!-- C3_1&#45;&gt;C3_2 -->
<!-- C3_3 -->
<g id="node22" class="node">
<title>C3_3</title>
<polygon fill="#cc79a7" stroke="#000000" points="510,-280 352,-280 352,-237 510,-237 510,-280"/>
<text text-anchor="middle" x="431" y="-254.3" font-family="Helvetica,sans-Serif" font-size="14.00" fill="#000000">Por Densidade</text>
</g>
<!-- C3_2&#45;&gt;C3_3 -->
<!-- C4_2 -->
<g id="node24" class="node">
<title>C4_2</title>
<polygon fill="#cc79a7" stroke="#000000" points="686,-359 528,-359 528,-316 686,-316 686,-359"/>
<text text-anchor="middle" x="607" y="-333.3" font-family="Helvetica,sans-Serif" font-size="14.00" fill="#000000">PCA</text>
</g>
<!-- C4_1&#45;&gt;C4_2 -->
<!-- C4_3 -->
<g id="node25" class="node">
<title>C4_3</title>
<polygon fill="#cc79a7" stroke="#000000" points="686,-280 528,-280 528,-237 686,-237 686,-280"/>
<text text-anchor="middle" x="607" y="-254.3" font-family="Helvetica,sans-Serif" font-size="14.00" fill="#000000">GMM</text>
</g>
<!-- C4_2&#45;&gt;C4_3 -->
<!-- C5_2 -->
<g id="node27" class="node">
<title>C5_2</title>
<polygon fill="#cc79a7" stroke="#000000" points="862,-359 704,-359 704,-316 862,-316 862,-359"/>
<text text-anchor="middle" x="783" y="-333.3" font-family="Helvetica,sans-Serif" font-size="14.00" fill="#000000">SARSA</text>
</g>
<!-- C5_1&#45;&gt;C5_2 -->
<!-- C5_3 -->
<g id="node28" class="node">
<title>C5_3</title>
<polygon fill="#cc79a7" stroke="#000000" points="862,-280 704,-280 704,-237 862,-237 862,-280"/>
<text text-anchor="middle" x="783" y="-254.3" font-family="Helvetica,sans-Serif" font-size="14.00" fill="#000000">DQN</text>
</g>
<!-- C5_2&#45;&gt;C5_3 -->
<!-- C5_4 -->
<g id="node29" class="node">
<title>C5_4</title>
<polygon fill="#cc79a7" stroke="#000000" points="862,-201 704,-201 704,-158 862,-158 862,-201"/>
<text text-anchor="middle" x="783" y="-175.3" font-family="Helvetica,sans-Serif" font-size="14.00" fill="#000000">DDPG</text>
</g>
<!-- C5_3&#45;&gt;C5_4 -->
</g>
</svg>

